<svg width="141" height="140" viewBox="0 0 141 140" fill="none" xmlns="http://www.w3.org/2000/svg">
<path d="M115.153 72.558L91.5439 68.8584L94.6736 82.9267L115.153 72.558Z" fill="#D12053"/>
<path d="M115.153 72.5573L97.3626 47.8398L91.5483 68.8622L115.153 72.5573Z" fill="#E2136E"/>
<path d="M90.9962 68.5775L72.3557 44.7549L96.766 47.6709L90.9962 68.5775Z" fill="#D12053"/>
<path d="M82.5063 58.6225L72.1554 48.8682H74.88L82.5063 58.6225Z" fill="#9E1638"/>
<path d="M120.188 60.542L115.807 72.4244L108.706 62.6033L120.188 60.542Z" fill="#D12053"/>
<path d="M97.4294 82.2141L114.619 75.3091L115.34 73.1143L97.4294 82.2141Z" fill="#E2136E"/>
<path d="M83.6816 95.2446L91.0452 69.4141L94.7805 86.2204L83.6816 95.2446Z" fill="#9E1638"/>
<path d="M120.874 60.6348L119.066 65.5409L125.584 65.434L120.874 60.6348ZM15.5839 62.6025C15.9 62.6293 16.2205 62.6871 16.5589 62.6871C16.8972 62.6871 17.1733 62.6293 17.5339 62.6025V73.0514C18.5623 71.3018 19.8578 70.1487 21.7633 70.1487C25.2091 70.1487 26.6872 73.5589 26.6872 76.6931C26.6872 80.4462 24.6838 84.0389 21.1712 84.0389C20.4679 84.0543 19.7738 83.8771 19.164 83.5263C18.5543 83.1755 18.0521 82.6646 17.7119 82.0489C17.1243 82.5653 16.6034 83.1841 16.0469 83.7451H15.6017L15.5839 62.6025ZM17.4893 77.9708C17.4893 81.016 18.7804 83.1396 20.904 83.1396C23.6598 83.1396 24.5458 79.4356 24.5458 76.8089C24.5458 73.7593 23.5396 71.3596 21.1533 71.3329C18.3664 71.3107 17.4893 74.6096 17.4893 77.9753V77.9708Z" fill="#E2136E"/>
<path d="M35.6757 69.3608L33.6011 72.032C35.5511 74.8813 37.5723 77.6727 39.5311 80.5576L41.5078 83.674V83.8298C41.0226 83.7986 40.5818 83.7363 40.1722 83.7363C39.7626 83.7363 39.2462 83.7986 38.8099 83.8298C38.2712 82.8325 37.737 81.911 37.1271 81.0072L31.7847 73.1049C31.6645 72.9803 31.3751 72.8823 31.3751 73.0114V83.8298C30.9833 83.7986 30.6405 83.7363 30.3022 83.7363C29.9638 83.7363 29.572 83.7986 29.2292 83.8298V62.6027C29.572 62.6294 29.9415 62.6961 30.3022 62.6961C30.6628 62.6961 30.9833 62.6294 31.3751 62.6027V72.1834C31.3751 72.3703 31.7401 72.2457 31.9806 71.9964C32.4443 71.5156 32.8784 71.0071 33.2805 70.4738L39.2863 62.5938C39.6024 62.6205 39.9185 62.6872 40.2613 62.6872C40.6041 62.6872 40.8667 62.6205 41.214 62.5938L35.6757 69.3608ZM51.832 81.4391C51.832 82.5432 51.7608 83.1041 53.1988 82.739V83.3579C52.9639 83.4756 52.7178 83.5695 52.4642 83.6383C51.1954 83.8921 50.1447 83.6651 49.9488 82.0045L49.7307 82.2493C49.3065 82.8051 48.7594 83.2551 48.1322 83.5641C47.505 83.873 46.8148 84.0326 46.1157 84.0301C44.3883 84.0301 42.8746 82.6678 42.8746 80.5798C42.8746 77.361 45.1006 76.9381 47.3845 76.5151C49.3166 76.1501 49.9755 75.9809 49.9755 74.623C49.9755 72.5306 48.9516 71.3197 47.1218 71.3197C46.4969 71.3074 45.8833 71.4875 45.3642 71.8355C44.845 72.1834 44.4453 72.6825 44.2191 73.2652H43.952V71.6981C45.0506 70.7423 46.4454 70.195 47.9009 70.1488C50.4608 70.1488 51.8543 71.6981 51.8543 74.8902L51.832 81.4391ZM49.882 76.7778L49.0228 76.9737C47.3622 77.3388 44.8735 77.6192 44.8735 80.197C44.8735 81.9777 45.7639 82.8681 47.2598 82.8681C48.0336 82.7729 48.7412 82.384 49.2365 81.7819C49.4146 81.5771 49.9043 81.0963 49.9043 80.8915L49.882 76.7778ZM56.1816 81.0651C56.7604 82.1736 57.8378 83.1664 58.9864 83.1664C59.6418 83.133 60.2584 82.8457 60.7055 82.3653C61.1527 81.8849 61.3951 81.2493 61.3816 80.5932C61.3816 76.7823 55.6162 79.2576 55.6162 74.3248C55.6162 71.6179 57.397 70.1532 59.5919 70.1532C60.5624 70.1319 61.5196 70.3847 62.3521 70.8834C62.1117 71.5365 61.9183 72.206 61.7733 72.8868H61.5507C61.2302 71.9563 60.3799 71.0214 59.4761 71.0214C58.2563 71.0214 57.2501 71.845 57.2501 73.372C57.2501 76.9826 63.0154 75.0593 63.0154 79.5781C63.0154 82.601 60.6737 84.0301 58.5189 84.0301C57.4398 84.0293 56.3833 83.7204 55.4738 83.1397C55.6923 82.4624 55.8634 81.7707 55.9857 81.0695L56.1816 81.0651ZM66.301 62.6027C66.626 62.6294 66.9421 62.6872 67.2805 62.6872C67.6188 62.6872 67.8948 62.6294 68.2599 62.6027V72.8823C69.1147 71.1594 70.4547 70.1488 72.191 70.1488C75.0225 70.1488 76.1221 72.0899 76.1221 75.6515V83.8298C75.7526 83.7986 75.4677 83.7452 75.1427 83.7452C74.8177 83.7452 74.4838 83.8031 74.1633 83.8298V76.297C74.1633 73.1806 73.5355 71.609 71.4564 71.609C69.2571 71.609 68.2599 73.194 68.2599 76.1278V83.8298C67.8948 83.7986 67.6055 83.7452 67.2805 83.7452C66.9555 83.7452 66.6305 83.8031 66.301 83.8298V62.6027Z" fill="#231F20"/>
</svg>
