<svg width="140" height="140" viewBox="0 0 140 140" fill="none" xmlns="http://www.w3.org/2000/svg">
<g clip-path="url(#clip0_2124_196)">
<path d="M110.116 58.93C110.116 71.7903 92.156 82.2126 69.9988 82.2126C47.8459 82.2126 29.8841 71.7903 29.8841 58.93C29.8841 46.0697 47.8459 35.6465 69.9988 35.6465C92.156 35.6465 110.116 46.0729 110.116 58.93Z" fill="url(#paint0_linear_2124_196)"/>
<mask id="mask0_2124_196" style="mask-type:luminance" maskUnits="userSpaceOnUse" x="30" y="33" width="81" height="48">
<path d="M110.116 56.5717C110.116 69.5777 92.1926 80.1209 70.0851 80.1209C47.9775 80.1209 30.0542 69.5777 30.0542 56.5717C30.0542 43.5658 47.9764 33.0234 70.0851 33.0234C92.1937 33.0234 110.116 43.5669 110.116 56.5717Z" fill="white"/>
</mask>
<g mask="url(#mask0_2124_196)">
<path d="M110.116 56.5717C110.116 69.5777 92.1926 80.1209 70.0851 80.1209C47.9775 80.1209 30.0542 69.5777 30.0542 56.5717C30.0542 43.5658 47.9764 33.0234 70.0851 33.0234C92.1937 33.0234 110.116 43.5669 110.116 56.5717Z" fill="url(#paint1_linear_2124_196)" stroke="#C4C0B9" stroke-width="0.103777" stroke-miterlimit="10"/>
<path fill-rule="evenodd" clip-rule="evenodd" d="M82.7246 79.3782C81.613 79.5584 80.5876 79.7695 79.555 79.8797C77.2608 80.1229 74.9596 80.3229 72.6622 80.5261C72.1461 80.5726 71.6296 80.5718 71.1115 80.5718C70.99 80.565 70.8744 80.5167 70.784 80.435C65.8337 75.7773 61.1295 70.9076 57.2814 65.3371C56.0575 63.5908 55.0287 61.715 54.2136 59.7435C52.8963 56.5009 53.3947 53.5014 55.3904 50.6666C56.9323 48.4726 58.927 46.7167 61.0958 45.1257C64.3843 42.7156 67.9729 40.7873 71.6743 39.0485C75.8124 37.1122 80.0659 35.4346 84.4107 34.0251C84.6795 33.941 84.9651 33.9256 85.2414 33.9805C86.1789 34.1848 87.1054 34.4355 88.038 34.7371C87.3528 34.986 86.6633 35.2289 85.9811 35.4816C81.0623 37.3118 76.3141 39.473 71.9056 42.2754C69.536 43.7787 67.3152 45.4619 65.4598 47.5477C64.0582 49.1201 62.9401 50.8444 62.4721 52.901C62.0794 54.5542 62.2472 56.2915 62.949 57.8385C63.9113 60.0045 65.2569 61.9407 66.7335 63.7973C69.5331 67.2498 72.6066 70.4698 75.9238 73.4258C78.0802 75.3849 80.3119 77.2683 82.5103 79.1847C82.5613 79.2293 82.6068 79.2731 82.7246 79.3782Z" fill="#F90909"/>
<path fill-rule="evenodd" clip-rule="evenodd" d="M66.9877 80.5648C66.1235 80.5251 65.3561 80.5173 64.5946 80.4519C63.0282 80.3208 61.4546 80.2219 59.9001 79.9987C57.8499 79.7052 55.8118 79.3067 53.7707 78.947C53.6747 78.9208 53.5889 78.8662 53.5244 78.7903C49.9256 74.5878 46.5988 70.2089 44.1731 65.2539C43.2277 63.3914 42.5659 61.3973 42.2099 59.3382C41.8422 57.0433 42.3663 54.9445 43.565 52.9716C44.8407 50.8679 46.5861 49.1577 48.5064 47.6072C51.4289 45.2509 54.6549 43.3377 58.0092 41.6153C64.6598 38.1981 71.6485 35.5562 78.7846 33.2431C79.8121 32.9099 80.7399 33.1123 81.7138 33.2739C82.1529 33.3482 82.589 33.4361 83.1211 33.5366C82.3518 33.8068 81.6656 34.0422 80.986 34.291C75.3155 36.3512 69.7983 38.7226 64.5647 41.6788C61.5435 43.3839 58.6572 45.2728 56.1104 47.6083C54.7649 48.8065 53.5927 50.1869 52.6276 51.7097C51.0291 54.3081 50.7455 57.0087 51.8224 59.8619C52.8165 62.492 54.2414 64.8961 55.8344 67.2179C58.5431 71.1596 61.6476 74.8037 64.9011 78.3363C65.5625 79.0559 66.2391 79.7658 66.9877 80.5648Z" fill="#141780"/>
<path fill-rule="evenodd" clip-rule="evenodd" d="M95.9583 75.2135C94.9555 75.6278 94.0242 76.0312 93.0805 76.4004C90.8622 77.2539 88.5937 77.97 86.2878 78.5445C86.1976 78.5736 86.1015 78.5795 86.0084 78.5616C85.9153 78.5438 85.8281 78.5028 85.7549 78.4424C80.9714 74.8485 76.368 71.0654 72.1838 66.8246C69.932 64.5374 67.8171 62.1463 66.2016 59.3852C65.5425 58.3253 65.0673 57.1611 64.7965 55.942C64.3959 53.9254 64.8083 52.0319 65.7803 50.2336C66.7941 48.3618 68.2262 46.8094 69.8419 45.4116C72.7218 42.9255 75.9842 40.9929 79.3921 39.2689C82.4748 37.7272 85.6456 36.3693 88.8879 35.2024C89.1415 35.0988 89.4243 35.0928 89.682 35.1856C90.5621 35.4958 91.4481 35.7882 92.3915 36.1044C91.3859 36.4873 90.4424 36.828 89.5138 37.205C85.794 38.7128 82.2359 40.5003 79.052 42.9112C77.1233 44.3726 75.4087 46.0282 74.1941 48.111C73.2278 49.7195 72.7729 51.5847 72.89 53.4587C72.9779 54.8941 73.5701 56.1512 74.3437 57.3458C75.6461 59.2927 77.1762 61.0763 78.9016 62.6586C82.2602 65.8499 85.9617 68.6356 89.8184 71.2351C91.7578 72.5419 93.7496 73.7752 95.7154 75.042C95.7715 75.0765 95.827 75.1184 95.9583 75.2135Z" fill="#278029"/>
</g>
<path d="M46.7321 94.2129H51.4308C52.4903 94.2129 53.2981 94.2942 53.8539 94.4567C54.6008 94.6772 55.2406 95.069 55.7733 95.6321C56.306 96.1951 56.7113 96.8858 56.9892 97.7042C57.2672 98.5169 57.4061 99.521 57.4061 100.717C57.4061 101.767 57.2758 102.673 57.0153 103.433C56.6968 104.362 56.2423 105.114 55.6517 105.688C55.2059 106.124 54.6037 106.463 53.8452 106.707C53.2778 106.887 52.5193 106.977 51.5697 106.977H46.7321V94.2129ZM49.3029 96.3721V104.826H51.2223C51.9403 104.826 52.4585 104.786 52.777 104.704C53.1938 104.6 53.5383 104.423 53.8105 104.173C54.0884 103.924 54.3142 103.514 54.4879 102.946C54.6616 102.371 54.7485 101.59 54.7485 100.604C54.7485 99.6168 54.6616 98.8593 54.4879 98.3311C54.3142 97.8029 54.071 97.3908 53.7584 97.0948C53.4457 96.7988 53.0491 96.5985 52.5685 96.494C52.2095 96.4128 51.506 96.3721 50.458 96.3721H49.3029Z" fill="#172B4D"/>
<path d="M59.2477 94.2129H64.3372C65.3446 94.2129 66.0945 94.2564 66.5866 94.3435C67.0846 94.4248 67.5275 94.5989 67.9154 94.8659C68.3092 95.1329 68.6363 95.4899 68.8969 95.9368C69.1574 96.3779 69.2877 96.8742 69.2877 97.4256C69.2877 98.0235 69.1256 98.572 68.8013 99.0712C68.4829 99.5704 68.0486 99.9448 67.4986 100.194C68.2744 100.421 68.8708 100.807 69.2877 101.352C69.7046 101.898 69.913 102.539 69.913 103.276C69.913 103.857 69.7769 104.423 69.5048 104.974C69.2385 105.52 68.8708 105.958 68.4018 106.289C67.9386 106.614 67.3654 106.814 66.6822 106.89C66.2537 106.936 65.2202 106.965 63.5816 106.977H59.2477V94.2129ZM61.8185 96.3373V99.2889H63.5034C64.5051 99.2889 65.1275 99.2743 65.3707 99.2453C65.8108 99.1931 66.1553 99.0422 66.4042 98.7926C66.659 98.5372 66.7864 98.2034 66.7864 97.7913C66.7864 97.3966 66.6764 97.0774 66.4563 96.8336C66.2421 96.584 65.9208 96.4331 65.4923 96.3808C65.2375 96.3518 64.5051 96.3373 63.295 96.3373H61.8185ZM61.8185 101.413V104.826H64.1982C65.1246 104.826 65.7123 104.8 65.9613 104.748C66.3434 104.678 66.6532 104.51 66.8906 104.243C67.1338 103.97 67.2554 103.607 67.2554 103.155C67.2554 102.772 67.1627 102.446 66.9774 102.179C66.7922 101.912 66.5229 101.718 66.1697 101.596C65.8223 101.474 65.0638 101.413 63.8942 101.413H61.8185Z" fill="#172B4D"/>
<path d="M71.7459 94.2129H76.8354C77.8429 94.2129 78.5927 94.2564 79.0848 94.3435C79.5828 94.4248 80.0257 94.5989 80.4137 94.8659C80.8074 95.1329 81.1345 95.4899 81.3951 95.9368C81.6556 96.3779 81.7859 96.8742 81.7859 97.4256C81.7859 98.0235 81.6238 98.572 81.2995 99.0712C80.9811 99.5704 80.5468 99.9448 79.9968 100.194C80.7726 100.421 81.369 100.807 81.7859 101.352C82.2028 101.898 82.4112 102.539 82.4112 103.276C82.4112 103.857 82.2752 104.423 82.003 104.974C81.7367 105.52 81.369 105.958 80.9 106.289C80.4368 106.614 79.8636 106.814 79.1804 106.89C78.7519 106.936 77.7184 106.965 76.0798 106.977H71.7459V94.2129ZM74.3167 96.3373V99.2889H76.0016C77.0033 99.2889 77.6257 99.2743 77.8689 99.2453C78.309 99.1931 78.6535 99.0422 78.9024 98.7926C79.1572 98.5372 79.2846 98.2034 79.2846 97.7913C79.2846 97.3966 79.1746 97.0774 78.9546 96.8336C78.7403 96.584 78.419 96.4331 77.9905 96.3808C77.7357 96.3518 77.0033 96.3373 75.7932 96.3373H74.3167ZM74.3167 101.413V104.826H76.6964C77.6228 104.826 78.2105 104.8 78.4595 104.748C78.8417 104.678 79.1514 104.51 79.3888 104.243C79.632 103.97 79.7536 103.607 79.7536 103.155C79.7536 102.772 79.6609 102.446 79.4757 102.179C79.2904 101.912 79.0211 101.718 78.668 101.596C78.3205 101.474 77.562 101.413 76.3925 101.413H74.3167Z" fill="#172B4D"/>
<path d="M84.3049 106.977V94.3174H86.8757V104.826H93.268V106.977H84.3049Z" fill="#172B4D"/>
</g>
<defs>
<linearGradient id="paint0_linear_2124_196" x1="31.248" y1="58.9296" x2="108.03" y2="58.9296" gradientUnits="userSpaceOnUse">
<stop stop-color="#949494"/>
<stop offset="0.055" stop-color="#A6A6A6"/>
<stop offset="0.165" stop-color="#D5D5D5"/>
<stop offset="0.253" stop-color="white"/>
<stop offset="0.37" stop-color="#CACACA"/>
<stop offset="0.514" stop-color="#8F8F8F"/>
<stop offset="0.621" stop-color="#6A6A6A"/>
<stop offset="0.677" stop-color="#5C5C5C"/>
<stop offset="0.718" stop-color="#636363"/>
<stop offset="0.78" stop-color="#787878"/>
<stop offset="0.854" stop-color="#9A9A9A"/>
<stop offset="0.939" stop-color="#C9C9C9"/>
<stop offset="1" stop-color="#F0F0F0"/>
</linearGradient>
<linearGradient id="paint1_linear_2124_196" x1="70.0851" y1="30.5744" x2="70.0851" y2="82.2873" gradientUnits="userSpaceOnUse">
<stop stop-color="#BABABA"/>
<stop offset="0.215" stop-color="#D9D9D9"/>
<stop offset="0.446" stop-color="white"/>
<stop offset="0.767" stop-color="#B9B9B9"/>
<stop offset="1" stop-color="#8B8B8B"/>
</linearGradient>
<clipPath id="clip0_2124_196">
<rect width="96.2318" height="73.9533" fill="white" transform="translate(21.8841 33.0234)"/>
</clipPath>
</defs>
</svg>
