<svg width="141" height="140" viewBox="0 0 141 140" fill="none" xmlns="http://www.w3.org/2000/svg">
<path d="M83.219 72.8691H66.1089C53.0627 74.8654 51.7085 93.828 65.9662 96.3946H83.219V79.2852C88.9695 79.4753 90.1575 86.6515 85.9278 89.2655C86.7835 90.2634 90.2054 93.9706 90.2054 93.9706C99.1877 86.2238 94.0549 73.4869 83.219 72.8691ZM76.9491 89.9785H67.3969C61.4798 90.3348 59.5548 80.5685 66.8262 79.2852H76.9491V89.9785Z" fill="#7B0F82"/>
<path fill-rule="evenodd" clip-rule="evenodd" d="M119.006 81.4241H112.732L110.023 87.6975H118.008C119.612 87.6251 119.683 89.9787 118.008 90.1211H104.179V79.2855H125.423V72.8694H122.284C121.357 59.6096 105.496 59.2182 101.325 66.4537C102.145 67.1308 106.03 70.5882 106.03 70.5882C108.42 66.8455 115.047 67.0236 116.011 72.8694H97.9044V96.393H118.293C122.928 96.3206 125.064 92.8998 125.564 89.9769C125.85 85.2736 122.998 82.1371 119.006 81.4241Z" fill="#7B0F82"/>
<path fill-rule="evenodd" clip-rule="evenodd" d="M57.9819 72.8691H49.7122C47.0758 76.0788 42.5133 89.0515 51.5658 98.8188C51.5658 98.8188 55.4867 95.4683 56.271 94.827C53.4904 92.117 48.857 81.0671 57.9819 72.8691Z" fill="#7B0F82"/>
<path fill-rule="evenodd" clip-rule="evenodd" d="M36.9326 99.0452C36.9324 100.07 36.6283 101.072 36.0587 101.925C35.4891 102.777 34.6796 103.441 33.7325 103.833C32.7854 104.225 31.7433 104.328 30.738 104.128C29.7326 103.928 28.8091 103.434 28.0843 102.709C27.3595 101.984 26.8659 101.061 26.6659 100.056C26.4659 99.0502 26.5686 98.0081 26.9608 97.061C27.3531 96.114 28.0174 95.3045 28.8697 94.735C29.722 94.1654 30.724 93.8614 31.7491 93.8613C32.4298 93.8613 33.1039 93.9954 33.7328 94.2559C34.3617 94.5164 34.9332 94.8983 35.4145 95.3797C35.8958 95.861 36.2776 96.4325 36.5381 97.0614C36.7986 97.6904 36.9326 98.3644 36.9326 99.0452Z" fill="#7B0F82"/>
<path d="M37.6441 96.3946C37.1336 95.2584 36.3056 94.294 35.2598 93.6174C34.214 92.9409 32.995 92.5809 31.7494 92.5809C30.5039 92.5809 29.2848 92.9409 28.2391 93.6174C27.1933 94.294 26.3653 95.2584 25.8548 96.3946H25.7592C11.5014 93.828 12.856 74.865 25.9019 72.8691H43.0112V96.3946H37.6441Z" fill="#7B0F82"/>
<path fill-rule="evenodd" clip-rule="evenodd" d="M97.3356 44.3538L81.0815 60.6074L82.2218 69.7324L85.2164 63.459L94.484 75.2929L107.459 35.3711L64.255 53.3361L75.9477 59.4668L97.3356 44.3538Z" fill="#7B0F82"/>
<path d="M31.0347 69.8757L28.4685 67.3095V69.8757H26.1873V61.6777H31.7477C35.1696 62.6398 34.1376 66.9528 32.0348 67.3095L34.6014 69.8757H31.0347Z" fill="#7B0F82"/>
<path d="M38.5711 69.8564C37.6098 69.8565 36.6783 69.5232 35.9352 68.9135C35.1922 68.3037 34.6835 67.4552 34.4959 66.5124C34.3084 65.5697 34.4535 64.591 34.9065 63.7433C35.3596 62.8955 36.0926 62.2311 36.9807 61.8632C37.8687 61.4953 38.8568 61.4467 39.7767 61.7257C40.6965 62.0047 41.4912 62.594 42.0253 63.3932C42.5593 64.1924 42.7998 65.1521 42.7056 66.1087C42.6114 67.0653 42.1885 67.9597 41.5088 68.6394C41.1239 69.0264 40.6661 69.3332 40.1618 69.5421C39.6576 69.751 39.1169 69.8578 38.5711 69.8564ZM38.5711 63.8759C38.21 63.876 37.8571 63.9831 37.5569 64.1838C37.2567 64.3844 37.0228 64.6695 36.8846 65.0031C36.7465 65.3367 36.7103 65.7038 36.7808 66.0579C36.8513 66.412 37.0251 66.7373 37.2804 66.9926C37.5358 67.2479 37.861 67.4218 38.2152 67.4923C38.5693 67.5627 38.9363 67.5266 39.2699 67.3885C39.6035 67.2503 39.8887 67.0164 40.0893 66.7162C40.2899 66.416 40.3971 66.0631 40.3971 65.702C40.3967 65.2178 40.2041 64.7536 39.8618 64.4113C39.5194 64.0689 39.0552 63.8764 38.5711 63.8759Z" fill="#7B0F82"/>
<path fill-rule="evenodd" clip-rule="evenodd" d="M62.1393 63.9076H65.8733V61.5H62.7136C60.2292 61.5 58.1964 63.3746 58.1964 65.6664C58.1964 67.9581 60.2292 69.8327 62.7136 69.8327H65.8733V67.4247H62.1393C61.8785 67.4242 61.6213 67.364 61.3873 67.2487C61.1534 67.1334 60.949 66.9661 60.7897 66.7595H65.8733V64.5732H60.7901C60.9493 64.3666 61.1536 64.1993 61.3875 64.0839C61.6214 63.9686 61.8785 63.9083 62.1393 63.9076Z" fill="#7B0F82"/>
<path fill-rule="evenodd" clip-rule="evenodd" d="M47.2974 67.4247C46.844 67.4234 46.4096 67.2427 46.089 66.9221C45.7684 66.6015 45.5878 66.1671 45.5864 65.7138V65.6189C45.5877 65.1655 45.7683 64.731 46.0889 64.4103C46.4095 64.0897 46.8439 63.909 47.2974 63.9076H50.846V61.5H47.6634C45.1791 61.5 43.1466 63.3746 43.1466 65.6664C43.1466 67.9581 45.1791 69.8327 47.6634 69.8327H50.846V67.4247H47.2974Z" fill="#7B0F82"/>
<path fill-rule="evenodd" clip-rule="evenodd" d="M74.5455 61.6582H66.4978V63.8127H69.4446V69.7059H71.5991V63.8127H74.5455V61.6582Z" fill="#7B0F82"/>
<path d="M55.3915 65.6501L59.3529 61.6572H56.1475L53.9195 63.9023V61.6572H51.765V69.7057H53.9195V67.398L56.2087 69.7057H59.4141L55.3915 65.6501Z" fill="#7B0F82"/>
<path d="M123.584 101.97C123.443 101.976 123.302 101.953 123.171 101.901C123.039 101.85 122.92 101.771 122.821 101.671C122.724 101.568 122.648 101.447 122.598 101.314C122.549 101.182 122.526 101.041 122.531 100.899C122.528 100.764 122.552 100.63 122.603 100.504C122.654 100.379 122.73 100.265 122.826 100.171C122.922 100.075 123.037 99.9995 123.163 99.9493C123.29 99.899 123.425 99.875 123.561 99.8786C123.749 99.8748 123.934 99.9306 124.089 100.038C124.244 100.146 124.361 100.299 124.424 100.477C124.498 100.634 124.537 100.804 124.539 100.977C124.553 101.241 124.464 101.501 124.291 101.701C124.199 101.793 124.088 101.865 123.966 101.911C123.844 101.958 123.714 101.978 123.584 101.97ZM124.325 104.153C123.786 103.662 123.201 103.225 122.576 102.849L122.584 101.913C123.764 102.758 124.536 103.431 124.901 103.933V104.63L124.325 104.153ZM123.725 100.592C123.667 100.548 123.595 100.528 123.522 100.536C123.267 100.578 123.139 100.705 123.139 100.916C123.141 101.028 123.186 101.135 123.266 101.214C123.301 101.256 123.344 101.291 123.394 101.314C123.443 101.338 123.497 101.351 123.551 101.352L123.646 101.338C123.728 101.322 123.802 101.279 123.855 101.215C123.908 101.15 123.936 101.069 123.935 100.986C123.937 100.908 123.918 100.83 123.882 100.761C123.845 100.692 123.791 100.633 123.725 100.591V100.592Z" fill="#7B0F82"/>
<path d="M120.74 100.365V100.386C121.052 100.408 121.354 100.5 121.625 100.654C121.814 100.735 121.976 100.868 122.091 101.039C122.205 101.209 122.269 101.409 122.273 101.614C122.277 101.837 122.2 102.054 122.056 102.225C121.91 102.397 121.711 102.517 121.489 102.564C121.295 102.616 121.092 102.625 120.894 102.588V101.948C120.966 101.958 121.039 101.962 121.111 101.962C121.451 101.962 121.621 101.841 121.621 101.597C121.621 101.306 121.328 101.123 120.742 101.048V103.751H120.144C120.067 103.593 119.97 103.447 119.854 103.316C119.82 103.28 119.734 103.166 119.595 102.979C119.526 102.892 119.446 102.814 119.357 102.747C119.269 102.68 119.189 102.602 119.119 102.515C119.075 102.472 119.021 102.44 118.961 102.424C118.733 102.334 118.493 102.282 118.248 102.269L118.067 101.595C118.217 101.487 118.553 101.286 119.075 100.991C119.114 100.963 119.274 100.869 119.555 100.71C119.655 100.649 119.824 100.55 120.062 100.414V100.366H117.923V99.7714H122.574V100.366L120.74 100.365ZM120.063 101.146C119.952 101.231 119.784 101.343 119.558 101.484C119.484 101.519 119.417 101.569 119.36 101.629C119.286 101.701 119.215 101.768 119.148 101.829C119.22 101.895 119.336 101.986 119.494 102.103C119.643 102.272 119.832 102.481 120.063 102.729V101.146Z" fill="#7B0F82"/>
<path d="M121.302 99.3738C120.513 98.8778 119.867 98.6296 119.365 98.6294C119.118 98.6094 118.87 98.6503 118.642 98.7486C118.414 98.8468 118.214 98.9993 118.059 99.1928C117.951 99.3663 117.896 99.5677 117.902 99.7722H118.377V100.366H117.903V103.752H117.215V100.366H116.763V99.7722H117.215C117.213 99.5555 117.254 99.3405 117.336 99.1397C117.417 98.939 117.538 98.7563 117.69 98.6022C118.028 98.2865 118.461 98.0919 118.921 98.0489C118.974 98.0438 119.075 98.0322 119.224 98.0127H119.368C119.793 98.0154 120.212 98.1064 120.6 98.2799C120.82 98.3828 121.182 98.5887 121.686 98.8977L121.302 99.3738Z" fill="#7B0F82"/>
<path d="M115.727 101.97C115.586 101.976 115.445 101.953 115.314 101.901C115.182 101.85 115.063 101.771 114.964 101.671C114.867 101.568 114.792 101.446 114.743 101.314C114.693 101.181 114.671 101.041 114.676 100.899C114.673 100.764 114.697 100.63 114.748 100.504C114.799 100.379 114.875 100.266 114.971 100.171C115.067 100.075 115.182 99.9994 115.308 99.9492C115.434 99.899 115.57 99.8749 115.705 99.8786C115.894 99.8748 116.079 99.9306 116.234 100.038C116.389 100.146 116.506 100.299 116.569 100.477C116.643 100.634 116.682 100.804 116.684 100.977C116.698 101.241 116.609 101.501 116.435 101.701C116.343 101.794 116.232 101.865 116.11 101.912C115.988 101.958 115.857 101.978 115.727 101.97ZM116.468 104.153C115.93 103.662 115.344 103.225 114.719 102.849L114.727 101.913C115.906 102.758 116.679 103.431 117.044 103.933V104.63L116.468 104.153ZM115.868 100.592C115.81 100.548 115.738 100.528 115.666 100.536C115.409 100.578 115.282 100.705 115.282 100.916C115.284 101.028 115.329 101.135 115.409 101.214C115.444 101.256 115.487 101.291 115.537 101.314C115.586 101.338 115.64 101.351 115.695 101.352L115.789 101.338C115.871 101.322 115.945 101.279 115.998 101.215C116.051 101.15 116.079 101.069 116.078 100.986C116.08 100.908 116.062 100.83 116.025 100.761C115.988 100.692 115.934 100.633 115.868 100.591V100.592Z" fill="#7B0F82"/>
<path d="M114.164 100.365V103.751H113.487V100.365H112.988V99.7703H114.616V100.365H114.164Z" fill="#7B0F82"/>
<path d="M112.716 100.365C112.538 100.572 112.426 100.827 112.395 101.098C112.474 101.464 112.584 101.822 112.723 102.17C112.823 102.42 112.881 102.684 112.894 102.953C112.894 103.145 112.828 103.332 112.708 103.482C112.588 103.632 112.42 103.736 112.232 103.778C111.998 103.849 111.757 103.891 111.513 103.905L111.605 103.32C112.004 103.235 112.204 103.094 112.205 102.897C112.174 102.602 112.089 102.315 111.955 102.05C111.822 101.788 111.737 101.503 111.706 101.211C111.729 100.909 111.828 100.617 111.995 100.365H111.29V99.7703H113.179V100.365H112.716Z" fill="#7B0F82"/>
<path d="M110.407 100.365H107.356V99.7703H111.58V100.365H111.109V103.751H110.511C110.454 103.577 110.161 103.308 109.632 102.943C109.353 102.762 109.053 102.616 108.738 102.508C108.431 102.38 108.105 102.304 107.772 102.283L107.591 101.609C108.006 101.351 108.445 101.132 108.901 100.957C109.205 100.824 109.707 100.627 110.407 100.365ZM110.444 101.097C110.318 101.139 110.184 101.189 110.039 101.245C109.826 101.339 109.44 101.508 108.88 101.752L108.75 101.808C109.301 102.004 109.818 102.284 110.284 102.638C110.346 102.685 110.4 102.725 110.443 102.758L110.444 101.097Z" fill="#7B0F82"/>
<path d="M105.329 100.365V103.751H104.65V102.407C104.643 102.273 104.59 102.146 104.499 102.047C104.463 101.993 104.415 101.949 104.359 101.917C104.303 101.885 104.241 101.866 104.176 101.861C104.114 101.868 104.054 101.889 104.002 101.922C103.949 101.956 103.906 102.002 103.875 102.057C103.779 102.186 103.728 102.342 103.73 102.503H102.998C103.002 102.33 102.951 102.16 102.853 102.018C102.819 101.959 102.77 101.909 102.712 101.874C102.654 101.838 102.588 101.817 102.52 101.814C102.409 101.816 102.302 101.856 102.216 101.927C102.173 101.957 102.136 101.995 102.109 102.04C102.081 102.085 102.064 102.135 102.057 102.187L102.035 102.363V102.433C102.035 102.781 102.248 102.955 102.674 102.955C102.79 102.949 102.905 102.935 103.019 102.912L102.781 103.596C102.642 103.612 102.557 103.62 102.528 103.62C102.201 103.616 101.888 103.491 101.65 103.268C101.53 103.156 101.44 103.016 101.39 102.859C101.33 102.707 101.299 102.545 101.297 102.381C101.291 102.217 101.317 102.054 101.375 101.901C101.433 101.748 101.522 101.608 101.636 101.49C101.752 101.376 101.891 101.286 102.043 101.228C102.196 101.169 102.359 101.142 102.522 101.149C102.694 101.151 102.863 101.197 103.013 101.282C103.163 101.367 103.289 101.489 103.38 101.636C103.466 101.497 103.585 101.38 103.725 101.296C103.865 101.211 104.023 101.161 104.187 101.149C104.274 101.153 104.36 101.174 104.439 101.212C104.518 101.249 104.589 101.301 104.648 101.366V100.366H100.993V99.7722H105.713V100.366L105.329 100.365Z" fill="#7B0F82"/>
<path d="M98.2195 100.365V99.7703H100.219C100.223 99.7541 100.226 99.7375 100.227 99.7207C100.236 99.5835 100.198 99.4472 100.118 99.3353C100.038 99.2235 99.9211 99.1429 99.7881 99.1073C99.7455 99.0975 99.7019 99.0927 99.6582 99.0932C99.568 99.096 99.4785 99.1103 99.392 99.1359C99.2472 99.174 99.1617 99.1957 99.1331 99.2004C99.0264 99.2167 98.9238 99.2536 98.8311 99.309C98.7111 99.3904 98.5834 99.4597 98.4498 99.5161L98.2326 99.0139C98.5475 98.8093 98.892 98.6545 99.254 98.5548C99.4174 98.5049 99.587 98.4786 99.7577 98.4769C99.9599 98.4873 100.156 98.5504 100.326 98.6598C100.51 98.7787 100.659 98.9444 100.757 99.1398C100.856 99.3352 100.901 99.5533 100.887 99.7718H101.276V100.366L98.2195 100.365ZM100.573 104.321C100.296 104.07 100.003 103.838 99.6954 103.626C99.4625 103.483 99.2137 103.368 98.9542 103.282C98.7985 103.218 98.637 103.169 98.4719 103.135L98.4795 102.342C98.537 102.342 98.6243 102.346 98.7417 102.353C98.859 102.36 98.947 102.363 99.0046 102.363C99.2592 102.372 99.5131 102.332 99.7527 102.245C100.117 102.092 100.299 101.912 100.299 101.704C100.299 101.628 100.28 101.553 100.243 101.487C100.207 101.42 100.155 101.364 100.091 101.322C99.9565 101.243 99.8197 101.167 99.6806 101.093C99.6449 101.075 99.6057 101.066 99.5658 101.065C99.4736 101.068 99.3829 101.089 99.2993 101.128C99.1795 101.183 99.1244 101.246 99.1338 101.315C99.158 101.491 99.3426 101.565 99.6878 101.537L99.321 102.099C99.1585 102.104 98.999 102.055 98.868 101.959C98.745 101.89 98.6419 101.79 98.5687 101.669C98.4955 101.549 98.4548 101.411 98.4505 101.271C98.4519 101.135 98.4927 101.003 98.5682 100.891C98.6436 100.778 98.7502 100.69 98.8749 100.638C99.1184 100.508 99.391 100.443 99.6668 100.448C99.7816 100.445 99.8956 100.467 100.001 100.512C100.095 100.554 100.19 100.6 100.286 100.652C100.494 100.74 100.671 100.889 100.793 101.078C100.916 101.268 100.98 101.49 100.976 101.716C100.979 101.879 100.942 102.039 100.868 102.184C100.793 102.328 100.685 102.452 100.551 102.544C100.272 102.728 99.9542 102.845 99.6227 102.888C99.7434 102.944 99.916 103.04 100.14 103.176C100.465 103.416 100.775 103.676 101.069 103.954L100.573 104.321Z" fill="#7B0F82"/>
<path d="M98.0044 100.365V103.751H97.3273V100.365H96.8287V99.7703H98.4563V100.365H98.0044Z" fill="#7B0F82"/>
<path d="M95.9821 100.365H92.931V99.7703H97.1545V100.365H96.6856V103.751H96.0874C96.03 103.577 95.7369 103.308 95.2082 102.943C94.9292 102.762 94.6292 102.616 94.3149 102.508C94.0079 102.38 93.6814 102.304 93.3492 102.283L93.1682 101.609C93.5828 101.35 94.0212 101.132 94.4775 100.957C94.78 100.824 95.2815 100.627 95.9821 100.365ZM96.0204 101.097C95.8948 101.139 95.7601 101.189 95.6149 101.245C95.4027 101.339 95.0165 101.508 94.4562 101.752L94.3262 101.808C94.8772 102.004 95.3946 102.284 95.86 102.638L96.0194 102.758L96.0204 101.097Z" fill="#7B0F82"/>
<path d="M92.7166 100.365V103.751H92.0392V100.365H91.5398V99.7703H93.1693V100.365H92.7166Z" fill="#7B0F82"/>
<path d="M91.3971 100.365V103.751H90.72V103.314C90.6782 103.086 90.5562 102.88 90.376 102.734C90.2108 102.561 90.0289 102.406 89.8329 102.269C89.6316 102.127 89.3912 102.051 89.1449 102.052C89.031 102.046 88.9179 102.073 88.8198 102.131C88.7216 102.189 88.6427 102.275 88.593 102.377C88.5777 102.406 88.5703 102.438 88.5717 102.47C88.5736 102.518 88.5865 102.565 88.6094 102.607C88.6324 102.65 88.6646 102.686 88.7038 102.714C88.7779 102.781 88.8734 102.82 88.9732 102.823C89.1512 102.793 89.3245 102.74 89.4889 102.665L89.6895 103.281C89.4584 103.414 89.2 103.493 88.9338 103.512C88.7128 103.514 88.4967 103.447 88.3146 103.322C88.1312 103.201 87.9884 103.027 87.9043 102.824C87.863 102.719 87.8434 102.606 87.8467 102.494C87.8399 102.318 87.8805 102.144 87.9643 101.989C88.0481 101.835 88.172 101.706 88.3229 101.616C88.5316 101.475 88.7775 101.399 89.0294 101.399H89.0945C89.0756 101.249 89.0099 101.11 88.907 101C88.868 100.94 88.8162 100.889 88.7551 100.851C88.6941 100.813 88.6254 100.788 88.5539 100.78H87.8044V100.364H87.5024V99.77H91.8624V100.364L91.3971 100.365ZM90.72 100.365H89.1268C89.3312 100.48 89.503 100.646 89.6261 100.846C89.7492 101.046 89.8196 101.274 89.8307 101.509C90.1739 101.664 90.478 101.893 90.7207 102.181L90.72 100.365Z" fill="#7B0F82"/>
<path d="M87.7957 100.384C87.4072 100.477 87.0703 100.718 86.8567 101.055C86.6134 101.366 86.4767 101.747 86.4671 102.142C86.4671 102.363 86.5139 102.582 86.6043 102.784C86.72 103.048 86.8769 103.18 87.0751 103.179C87.2181 103.163 87.3536 103.106 87.4658 103.016L87.6896 103.614C87.5136 103.728 87.3094 103.792 87.0997 103.797C86.8241 103.791 86.5593 103.688 86.3512 103.507C86.1694 103.329 86.0337 103.109 85.9558 102.867C85.8828 102.642 85.851 102.405 85.862 102.169V101.952C85.9216 101.329 86.1964 100.747 86.6391 100.304C86.8134 100.116 86.9984 99.937 87.1931 99.7692H88.006V100.362C87.9282 100.373 87.8583 100.38 87.7957 100.384Z" fill="#7B0F82"/>
<path d="M82.6169 100.992V100.539H84.011V99.7754H79.1729V100.539H81.9441V100.992H79.1729V102.807C79.2327 103.398 79.535 103.794 80.1104 103.794H82.6169V101.797H83.2889C83.4012 101.797 83.4294 101.74 83.4573 101.909V102.246C83.4153 102.414 83.4012 102.526 83.2889 102.582H83.0413V103.256H83.5417C83.6597 103.236 83.7697 103.184 83.859 103.104C83.9483 103.025 84.0132 102.922 84.0461 102.807V100.992H82.6169ZM81.9441 103.256H80.2621C80.0086 103.219 79.8417 102.919 79.8417 102.582V101.684H81.9314L81.9434 101.796L81.9441 103.256Z" fill="#7B0F82"/>
<path d="M78.5327 101.841H77.1024C76.8867 101.841 76.6787 101.76 76.5193 101.615C76.3598 101.47 76.2605 101.27 76.2406 101.055V99.9999H78.0279C78.1582 100.025 78.2772 100.091 78.3679 100.188C78.4585 100.284 78.5162 100.407 78.5327 100.539V101.841ZM77.4826 100.599C77.1603 100.599 76.8982 100.717 76.8982 100.862C76.8982 101.007 77.1603 101.125 77.4826 101.125C77.8049 101.125 78.0663 101.007 78.0663 100.862C78.0663 100.717 77.8056 100.599 77.4837 100.599H77.4826Z" fill="#7B0F82"/>
<path d="M76.359 102.236V102.899L78.5204 103.795V103.092L76.359 102.236Z" fill="#7B0F82"/>
<path d="M68.7324 99.7754V100.539H71.5032V100.992H68.7324V102.807C68.7922 103.397 69.0945 103.794 69.6699 103.794H72.176V100.539H73.0523L72.7333 101.178V101.627H73.3224C73.6353 101.663 73.7428 101.87 73.7428 102.413C73.7428 102.787 73.657 103.057 73.3666 103.086H72.8173V103.76H73.4064C73.5745 103.76 74.3454 103.835 74.4156 103.086C74.4996 101.57 74.5699 101.178 73.4904 101.065L73.648 100.539H74.8338V103.794H75.5906V99.775L68.7324 99.7754ZM71.5032 103.255H69.8213C69.5678 103.219 69.4009 102.919 69.4009 102.582V101.684H71.5032V103.255Z" fill="#7B0F82"/>
<path d="M61.1007 100.539H64.5327V100.992H63.5236C63.5149 101.075 63.4757 101.152 63.4136 101.208C63.3515 101.264 63.2708 101.295 63.1872 101.295C63.1035 101.295 63.0228 101.264 62.9607 101.208C62.8986 101.152 62.8594 101.075 62.8508 100.992H61.1007V102.919C61.1007 103.106 61.1293 103.716 61.6439 103.794H63.0199V103.143H62.0947C61.9936 103.122 61.9036 103.064 61.8417 102.982C61.7798 102.899 61.7501 102.797 61.7583 102.694V101.683H62.6824V102.245H63.5236V101.796C63.4674 101.59 64.4067 101.608 64.4487 101.796V103.794H65.2055V100.539H65.7099V103.794H66.4671V99.7743H61.1007V100.539Z" fill="#7B0F82"/>
<path d="M60.4116 101.841H58.9817C58.7659 101.841 58.558 101.76 58.3985 101.615C58.2389 101.469 58.1394 101.27 58.1192 101.055V99.9999H59.9065C60.0372 100.025 60.1567 100.09 60.2477 100.187C60.3388 100.284 60.3969 100.407 60.4135 100.539V101.84L60.4116 101.841ZM59.3616 100.599C59.0393 100.599 58.7768 100.717 58.7768 100.862C58.7768 101.007 59.0389 101.125 59.3616 101.125C59.6842 101.125 59.9453 101.007 59.9453 100.862C59.9453 100.717 59.6846 100.599 59.3626 100.599H59.3616Z" fill="#7B0F82"/>
<path d="M58.2379 102.236V102.899L60.399 103.795V103.092L58.2379 102.236Z" fill="#7B0F82"/>
<path d="M52.6772 99.7754V100.539H55.4491V100.992H52.6772V102.807C52.7369 103.397 53.0393 103.794 53.6154 103.794H56.1218V100.539H56.7106V103.794H57.4674V99.775L52.6772 99.7754ZM55.4491 103.255H53.7671C53.5136 103.219 53.3463 102.919 53.3463 102.582V101.684H55.4491V103.255Z" fill="#7B0F82"/>
<path d="M51.748 101.46H50.066V102.358H51.748V101.46Z" fill="#7B0F82"/>
<path d="M48.7205 104.041L49.982 104.468L50.4864 104.041L49.2249 103.598L48.7205 104.041Z" fill="#7B0F82"/>
<path d="M49.1398 100.539V99.7754H39.2327V100.539H40.8983V102.245H42.3283C42.3283 102.245 42.7346 102.114 42.8327 101.908V102.582C42.8383 102.723 42.7887 102.86 42.6945 102.965C42.6003 103.07 42.4689 103.134 42.3283 103.143H40.2256C40.0992 103.143 39.9721 103.087 39.9721 102.582V100.992H39.2327V103.031C39.2327 103.2 39.3388 103.794 39.8718 103.794H42.7215C42.9306 103.767 43.1235 103.667 43.2667 103.512C43.4099 103.357 43.4944 103.157 43.5055 102.947V100.992H42.8327C42.7624 101.291 42.8048 101.497 42.4963 101.571H41.6551V100.539H44.0942V103.794H44.9354V100.539H45.5242V103.794H48.2997C48.5269 103.788 48.7426 103.693 48.9001 103.529C49.0576 103.365 49.1441 103.146 49.1409 102.919V100.992H48.4681C48.4681 101.179 48.4398 101.46 48.1317 101.46H46.2792V100.539L49.1398 100.539ZM48.0462 102.132C48.1726 102.169 48.3406 101.964 48.467 101.796V102.582C48.467 102.881 48.2287 103.143 48.0462 103.143H46.2792V102.132H48.0462Z" fill="#7B0F82"/>
</svg>
